<?xml version="1.0" encoding="UTF-8"?>
<svg id="Layer_1" xmlns="http://www.w3.org/2000/svg" version="1.1" viewBox="0 0 6962.4 1783.8">
  <!-- Generator: Adobe Illustrator 30.3.0, SVG Export Plug-In . SVG Version: 2.1.3 Build 182)  -->
  <defs>
    <style>
      .st0 {
        fill: none;
      }

      .st1 {
        fill: #fff;
      }
    </style>
  </defs>
  <g id="Artboard_outline">
    <rect class="st0" x="-995.3" y="-1044.3" width="8860.3" height="3817.8"/>
  </g>
  <g id="Wordmark">
    <path class="st1" d="M2595.2,269.1h239.3l407,736.2,407-736.2h234.2v1209.7h-195.3v-927.1l-356.9,642h-183.2l-356.9-642v927.1h-195.3V269.1Z"/>
    <path class="st1" d="M4512.6,1500.4c-90.4,0-169.9-20-238.5-60.1-68.6-40-122-95.5-160.3-166.3-38.3-70.9-57.5-152.1-57.5-243.7,0-92.7,18.7-174.8,56.2-246.3,37.4-71.4,89.4-127.3,156-167.6,66.5-40.3,143-60.5,229.4-60.5,85.8,0,159.7,20.3,221.6,60.9,61.9,40.6,109.6,97.5,143,170.7,33.4,73.2,50.1,159,50.1,257.5v53.6h-662.7c12.1,73.7,41.9,131.8,89.4,174.1,47.5,42.3,107.6,63.5,180.2,63.5,58.2,0,108.3-8.6,150.3-25.9,42-17.3,81.5-43.5,118.4-78.6l103.7,127c-103.1,94.5-229.6,141.7-379.3,141.7ZM4655.1,782.8c-40.9-41.8-94.5-62.6-160.7-62.6-64.5,0-118.5,21.3-162,63.9-43.5,42.6-71,99.9-82.5,171.9h475.2c-5.8-73.7-29.1-131.5-70-173.3Z"/>
    <path class="st1" d="M5149.4,737.5h-179.7v-159.9h179.7v-264.4h188.4v264.4h273v159.9h-273v405.2c0,67.4,11.5,115.5,34.6,144.3,23,28.8,62.5,43.2,118.4,43.2,24.8,0,45.8-1,63.1-3,17.3-2,36.3-4.7,57-8.2v158.1c-23.7,6.8-47.8,12-72.1,15.6-27.9,4.1-56.1,6.1-84.2,6-203.3,0-305-111.2-305-333.5v-427.7Z"/>
    <path class="st1" d="M6592.4,1478.8h-184.9v-126.2c-32.8,47.2-74.6,83.7-125.3,109.3-50.7,25.6-108.3,38.4-172.8,38.5-79.5,0-149.9-20.3-211.3-60.9-61.3-40.6-109.6-96.5-144.7-167.6-35.1-71.1-52.7-152.5-52.7-244.1,0-92.2,17.9-173.7,53.6-244.5,35.7-70.8,85.1-126.4,148.2-166.8,63.1-40.3,135.5-60.5,217.3-60.5,61.6,0,116.9,12,165.9,35.9,48.3,23.4,90.1,58.2,121.8,101.5v-115.8h184.9v901.2ZM6404,893c-20.2-51.3-52-91.7-95.5-121.4-43.5-29.7-93.8-44.5-150.8-44.5-80.7,0-144.9,27.1-192.7,81.2-47.8,54.1-71.7,127.3-71.7,219.5,0,92.8,23,166.2,69.1,220.3,46.1,54.1,108.6,81.2,187.5,81.2,58.2,0,110-15,155.5-44.9,45.5-29.9,78.3-70.3,98.5-121v-270.4Z"/>
  </g>
  <g id="Symbol">
    <path class="st1" d="M1651.7,228.3c-157,0-279.8,118.3-390.9,268.5-152.7-194.4-280.4-268.5-433.2-268.5-311.6,0-550.3,405.5-550.3,834.6s129.9,437.9,347.6,437.9,269.3-73.8,469.5-423.9c0,0,83.5-147.4,140.9-249,20.1,32.5,41.3,67.5,63.6,105l93.9,158c182.9,306.1,284.9,409.9,469.5,409.9s330-171.7,330-445.8c0-449.4-244.1-826.8-540.6-826.8ZM941.7,982.2c-162.4,254.5-218.5,311.6-308.9,311.6s-148.3-81.7-148.3-227.3c0-311.6,155.3-630.2,340.5-630.2s184.1,57.9,312.5,241.7c-121.9,187-195.7,304.2-195.7,304.2ZM1554.5,950.1l-112.3-187.3c-30.4-49.4-59.6-94.9-87.6-136.5,101.2-156.2,184.7-234,284-234,206.2,0,371.2,303.7,371.2,676.7s-46.6,224.7-143.1,224.7c-92.5,0-136.7-61.1-312.3-343.6Z"/>
  </g>
</svg>