<?xml version="1.0" encoding="UTF-8"?><svg id="Layer_1" xmlns="http://www.w3.org/2000/svg" viewBox="0 0 2599 553.99"><defs><style>.cls-1{fill:#fdfdfd;}</style></defs><polygon class="cls-1" points="555.78 553.99 290.89 553.99 290.96 290.58 555.71 290.58 555.78 553.99"/><polygon class="cls-1" points="555.76 264.51 290.96 264.57 291.03 0 555.71 .07 555.76 264.51"/><polygon class="cls-1" points="264.9 553.99 0 553.99 .07 290.58 264.82 290.58 264.9 553.99"/><polygon class="cls-1" points="264.87 264.51 .07 264.57 .14 0 264.82 .07 264.87 264.51"/><path class="cls-1" d="M1708.09,449.82c-25.63-1.92-49.42-10.34-68.51-26.67l-12.13-12.14c-16.35-19.39-24.55-43.6-26.62-69.07l-.06-28.28c1.56-21.51,7.1-42.08,18.13-60.46l12.9-17.1,6.09-6.07c18.29-18.22,48.62-28.09,74.7-29.93h29.47c16.95,1.58,33.23,5.47,48.24,13.59,24.35,13.19,41.88,35.55,49.78,61.9,3.03,10.12,5.79,19.65,5.77,30.17l-.06,34.15c-2.16,23.65-9.48,46.12-23.83,64.92-21.75,28.49-51.36,42.23-86.86,45.08l-27-.1ZM1768.16,386.54l4.29-5.11c9.96-13.72,13.19-30,14.45-46.53v-20.05c-2.86-40.69-21.56-67.64-64.43-67.59s-62.33,34.8-62.51,74.9l-.04,8.46c-.06,12.77,2.51,24.72,7.49,36.61,3.53,8.44,8.9,15.13,15.71,21.36,11.25,10.28,25.96,13.81,41.23,13.94,16.3.13,31.76-3.98,43.81-16Z"/><path class="cls-1" d="M2599,205.62v46.92l-.92,2-52.55.03c-.57,38.53-.6,77.23-.1,116.11,2.97,32.46,24.57,36.12,50.95,22.96l2.62.64v47.91c-21.34,8.46-45.2,10.93-67.74,4.98-34.36-9.07-44.64-37.89-45.96-71.43l-.3-123.18-81.94.02v192.59s-57.97-.07-57.97-.07l.02-192.48-39.85-.22-.17-46.73h39.98s.26-44.63.26-44.63c1.99-17.84,8.47-33.44,20.23-46.89,23.81-27.21,64.66-32.74,99.5-22.84l-.02,49.89c-10.27-5.1-20.69-7.37-32.01-6.29-7.14-.51-13.1,3.04-18.84,7.07-6.33,6.8-10.7,15.37-10.78,25.03l-.35,38.67h82.01s-.04-46.97-.04-46.97c.54-2.85.61-5.7,1.66-7.69l56.35-16.75v71.41s55.98-.06,55.98-.06Z"/><path class="cls-1" d="M2289.09,383.31c-25.88,57.84-88.75,76.27-148.11,63.11-32.94-7.31-60.25-28.95-74.36-59.47-6.16-13.33-9.58-27.2-10.92-41.9l-.05-34.36c1.22-18.89,6.36-36.84,15.35-53.3,19.75-36.15,55.09-54.14,95.61-57.24l29.29-.07c63.99,5.36,100,46.78,104.79,109.76l.06,25.3c-1.35,16.91-4.73,32.68-11.66,48.17ZM2227.69,380.31c8.29-12.01,13.01-25.98,13.01-40.2v-31.38c-2.81-35.47-23.5-60.8-60.62-61.41-41.39-.69-62.15,27.18-65.45,66.67-2.01,24.03,1.61,50.99,17.48,69.45,12.02,13.98,29.78,19.32,48.02,19.14,18.62-.18,36.48-6.22,47.56-22.28Z"/><path class="cls-1" d="M1998.55,434.69c-36.93,22.55-86.92,18.64-127.12,1.97l.06-44.3.94-11.44c23.48,17.67,65.55,31.57,91.1,18.64,6.9-3.49,10.12-11,10.44-17.9.77-16.25-14.85-23.86-29.66-30.34l-18.08-7.9c-31.82-13.91-53.57-30.56-54.26-67.94-.82-44.91,35.43-71.37,77.95-75.27,23.59-2.28,46.65,1.38,69.34,9.84l-.3,53.13c-20.45-13.3-42.27-19.48-65.3-17.26-8.1,1.34-15.85,4.5-20.37,11.75-5.46,8.76-4.06,21.77,3.82,28.88,13.38,12.07,41.94,17.72,65.83,34.01,17.37,11.85,28.31,29.48,28.64,50.6l.12,7.57c-1.07,23.38-12.94,43.6-33.15,55.95Z"/><path class="cls-1" d="M1332.52,398.29c30.43,10.4,58.92.83,84.89-17.2l.09,52.42c-16.54,9.81-35.03,14.65-54.47,16.25l-28.23.04c-27.15-2.47-52.58-12.87-71.63-32.25-5.95-6.06-11.29-11.81-15.77-19.35-9.56-16.11-15.88-34.11-17.44-53.1v-30.41c5.83-65.15,48.47-108.85,113.81-114.6h27.42c16.09,1.39,31.35,4.8,46.13,11.99l.12,56.02c-14.55-10.59-30.14-18.44-47.92-20.34l-18.94-.07c-22.04,2.46-40.86,15.16-51.45,34.35-9.45,17.12-11.56,36-9.84,55.34,2.46,27.75,16.62,51.79,43.25,60.9Z"/><path class="cls-1" d="M1515.92,313.62l-.67,131.54-56.79-.03-.04-239.46,56.96-.02.26,38.2c11.03-23.61,26.48-39.72,53.45-42.59l11.82-.14c5.7-.07,11.59,1.08,17.37,4.05l-.09,57.65c-12.16-7.8-24.92-10.25-38.98-9.21-10.64.79-19.59,7.05-27.21,14.62-9.65,13.1-16,27.96-16.09,45.39Z"/><path class="cls-1" d="M1023.7,444.24l-.48-255.79-81.96,205.25-19.8,50.52-10.93.76-15.77-.02c-4.07,0-7.17-1.31-11.28.25-1.84.7-3.66-.7-4.44-2.63l-102.98-254.07-.46,256.56-54.8.17-.09-334.3,83.38-.21,97.41,245.73,63.48-155.43,36.08-88.98,7.7-1.13,72.85-.09-.02,333.33-16.5.55-25.5.27-15.89-.76Z"/><polygon class="cls-1" points="1192.56 445.02 1134.58 445.17 1134.54 205.63 1192.52 205.77 1192.56 445.02"/><path class="cls-1" d="M1191.87,156.81c-13.23,16.32-37.83,16.99-51.08,4.8-6.85-6.3-11.35-13.45-11.42-22.86-.05-7.54,1.14-14.27,5.78-20.52,11.64-15.65,33.61-19.26,49.86-7.81,15.05,10.6,18.36,32.2,6.86,46.39Z"/></svg>