<?xml version="1.0" encoding="UTF-8"?><svg id="katman_1" xmlns="http://www.w3.org/2000/svg" viewBox="0 0 481.9 175.28"><defs><style>.cls-1{fill-rule:evenodd;}.cls-1,.cls-2{fill:#fff;}</style></defs><path class="cls-2" d="M219.06,119.55v-46.23h.82l33.31,46.23h10.48V51.65h-11.65v46.12h-.82l-33.31-46.12h-10.48v67.89h11.65ZM296.62,120.6c15.37,0,24.81-10.02,24.81-26.79s-9.43-26.79-24.81-26.79-24.81,10.13-24.81,26.79c.12,16.77,9.43,26.79,24.81,26.79ZM296.62,110.81c-8.15,0-12.81-6.17-12.81-17s4.66-17,12.81-17,12.81,6.29,12.81,17-4.66,17-12.81,17ZM332.02,55.5v12.93h-8.15v9.32h8.15v28.07c0,10.02,4.66,13.97,16.54,13.97,2.21,0,4.43-.23,6.17-.58v-9.08c-1.4.12-2.33.23-3.96.23-4.89,0-7.1-2.21-7.1-7.34v-25.27h11.06v-9.32h-11.06v-12.93h-11.65ZM361.72,119.55h11.65v-51.47h-11.65v51.47ZM367.54,59.57c3.84,0,6.99-3.14,6.99-6.99s-3.14-7.1-6.99-7.1-6.99,3.14-6.99,7.1,3.14,6.99,6.99,6.99h0ZM405.27,120.6c15.37,0,24.81-10.02,24.81-26.79s-9.43-26.79-24.81-26.79-24.81,10.13-24.81,26.79c0,16.77,9.32,26.79,24.81,26.79ZM405.27,110.81c-8.15,0-12.81-6.17-12.81-17s4.66-17,12.81-17,12.81,6.29,12.81,17c-.12,10.83-4.77,17-12.81,17ZM436.95,119.55h11.65v-29.93c0-7.57,4.43-12.34,11.3-12.34s10.36,3.96,10.36,11.76v30.51h11.65v-33.31c0-12.34-6.29-19.22-17.7-19.22-7.69,0-12.81,3.49-15.26,9.32h-.82v-8.27h-11.3c.12,0,.12,51.47.12,51.47Z"/><path class="cls-1" d="M29,30.69c5.47,4.43,7.45,4.08,17.7,3.38l96.54-5.82c2.1,0,.35-2.1-.35-2.33l-16.07-11.53c-3.03-2.33-7.22-5.12-15.02-4.43l-93.4,6.87c-3.38.35-4.08,2.1-2.68,3.38l13.28,10.48ZM34.82,53.17v101.55c0,5.47,2.68,7.45,8.85,7.1l106.09-6.17c6.17-.35,6.87-4.08,6.87-8.5V46.3c0-4.43-1.75-6.87-5.47-6.52l-110.87,6.52c-4.08.35-5.47,2.45-5.47,6.87h0ZM139.52,58.64c.7,3.03,0,6.17-3.03,6.52l-5.12,1.05v75c-4.43,2.33-8.5,3.73-12,3.73-5.47,0-6.87-1.75-10.95-6.87l-33.42-52.52v50.78l10.6,2.33s0,6.17-8.5,6.17l-23.52,1.4c-.7-1.4,0-4.77,2.33-5.47l6.17-1.75v-67.08l-8.5-.7c-.7-3.03,1.05-7.45,5.82-7.8l25.27-1.75,34.82,53.1v-46.93l-8.85-1.05c-.7-3.73,2.1-6.52,5.47-6.87l23.41-1.28ZM10.6,7.52L107.84.41c11.88-1.05,15.02-.35,22.48,5.12l30.98,21.78c5.12,3.73,6.87,4.77,6.87,8.85v119.6c0,7.45-2.68,11.88-12.23,12.58l-112.85,6.87c-7.22.35-10.6-.7-14.32-5.47l-22.94-29.7c-4.08-5.47-5.82-9.55-5.82-14.32V19.39c0-6.17,2.79-11.18,10.6-11.88Z"/></svg>