<?xml version="1.0" encoding="UTF-8"?>
<svg id="Layer_1" xmlns="http://www.w3.org/2000/svg" version="1.1" viewBox="0 0 231 30">
  <!-- Generator: Adobe Illustrator 30.3.0, SVG Export Plug-In . SVG Version: 2.1.3 Build 182)  -->
  <defs>
    <style>
      .st0 {
        fill: #fff;
      }
    </style>
  </defs>
  <path class="st0" d="M99.6,19.5h15.2l-8.1-13-14.8,23.5h-6.7L103.2,1.8c1.4-1.9,4-2.4,6-1.1.4.3.7.6,1,1l18.1,28.2h-6.7l-3.2-5.2h-15.4l-3.4-5.2M169.6,24.8V.3h-5.7v26.9c0,.8.3,1.5.9,2,.5.6,1.3.9,2.1.9h26l3.4-5.2h-26.6M75,20.4c5.6,0,10.1-4.5,10.1-10S80.5.3,75,.3h-25v29.7h5.7V5.5h18.9c2.7,0,4.8,2.2,4.8,4.8s-2.2,4.8-4.8,4.8h-16.1l17.1,14.8h8.3l-11.5-9.6h2.6M14.9,30h17.3c8.2-.2,14.7-7,14.5-15.2-.2-7.9-6.6-14.3-14.5-14.5H14.9C6.7,0-.2,6.6-.4,14.8c-.2,8.2,6.3,15,14.5,15.2.3,0,.5,0,.8,0M31.7,24.8H15.2c-5.3-.2-9.5-4.6-9.3-9.9.2-5.1,4.2-9.1,9.3-9.3h16.5c5.3-.2,9.8,4,9.9,9.3.2,5.3-4,9.8-9.3,9.9-.2,0-.4,0-.6,0M140.2,30h17.6l3.3-5.2h-20.6c-5.3.2-9.8-4-9.9-9.3-.2-5.3,4-9.8,9.3-9.9.2,0,.4,0,.6,0h16.8l3.4-5.2h-20.5c-8.2-.2-15,6.3-15.2,14.5-.2,8.2,6.3,15,14.5,15.2.3,0,.5,0,.8,0M210.1,24.8c-4.3,0-8.1-2.9-9.3-7h24.4l3.4-5.2h-27.8c1.2-4.1,5-7,9.3-7h16.8l3.4-5.2h-20.5c-8.2.2-14.7,7-14.5,15.2.2,7.9,6.6,14.3,14.5,14.5h17.6l3.4-5.2h-20.6"/>
</svg>