<?xml version="1.0" encoding="UTF-8"?><svg id="Layer_1" xmlns="http://www.w3.org/2000/svg" viewBox="0 0 129.57 39.7"><path d="M0,.43h6.16l5.15,17.1L16.45.43h5.04l5.22,17.1L31.78.43h6.01l-8.39,24.84h-5.58l-4.93-16.2-4.86,16.2h-5.62L0,.43Z"/><path d="M38.34.43h5.58v24.84h-5.58V.43Z"/><path d="M45.25,17.82h5.72c0,1.62,1.69,2.92,3.82,2.92,1.91,0,3.49-1.01,3.49-2.41,0-3.89-12.63-2.2-12.63-10.62,0-4.68,3.92-7.7,8.93-7.7s9.07,3.24,9.07,7.56h-5.72c0-1.48-1.48-2.59-3.38-2.59-1.73,0-3.17.86-3.17,2.27,0,3.92,12.63,1.8,12.63,10.44,0,4.86-4.07,8.03-9.29,8.03s-9.47-3.46-9.47-7.88Z"/><path d="M69.84,5.69h-6.52V.43h18.61v5.26h-6.52v19.58h-5.58V5.69Z"/><path d="M83.05.43h16.49v5.26h-10.91v4.46h9.72v5.26h-9.72v4.61h11.09v5.25h-16.67V.43Z"/><path d="M101.16.43h6.91l6.98,12.81L122.07.43h6.84v24.84h-5.58V8.71l-6.73,12.38h-3.17l-6.7-12.38v16.56h-5.58V.43Z"/><path d="M40.49,35.26c0-1.26.86-2.18,1.91-2.18.47,0,.86.19,1.16.5v-.36h1.46v2.57c0,.25.18.44.44.44.43,0,.71-.55.71-1.33,0-1.7-1.41-2.96-3.23-2.96-1.91,0-3.31,1.41-3.31,3.3s1.36,3.28,3.5,3.28c.79,0,1.65-.19,2.21-.45v1.18c-.6.29-1.4.44-2.19.44-2.85,0-4.75-1.93-4.75-4.44s1.92-4.47,4.53-4.47,4.46,1.76,4.46,4.15c0,1.46-.74,2.45-2.02,2.45-.66,0-1.23-.25-1.54-.68-.27.44-.73.69-1.34.69-1.17,0-2.01-.93-2.01-2.14ZM43.56,35.25c0-.44-.35-.77-.79-.77s-.8.32-.8.77.35.77.8.77.79-.33.79-.77Z"/><path d="M50.53,30.22h1.85v6.5h3.32v1.75h-5.18v-8.25Z"/><path d="M55.91,34.34c0-2.43,1.88-4.27,4.36-4.27s4.36,1.84,4.36,4.27-1.88,4.27-4.36,4.27-4.36-1.84-4.36-4.27ZM62.73,34.34c0-1.42-1.06-2.49-2.46-2.49s-2.46,1.06-2.46,2.49,1.06,2.49,2.46,2.49,2.46-1.06,2.46-2.49Z"/><path d="M65.81,30.22h1.87l3.43,5.05v-5.05h1.85v8.25h-1.88l-3.42-5.05v5.05h-1.85v-8.25Z"/><path d="M74.52,30.22h3.25c2.4,0,4.21,1.77,4.21,4.12s-1.81,4.12-4.21,4.12h-3.25v-8.25ZM76.38,31.96v4.76h1.35c1.35,0,2.36-1.03,2.36-2.38s-1-2.38-2.36-2.38h-1.35Z"/><path d="M82.76,34.34c0-2.43,1.88-4.27,4.36-4.27s4.36,1.84,4.36,4.27-1.88,4.27-4.36,4.27-4.36-1.84-4.36-4.27ZM89.59,34.34c0-1.42-1.06-2.49-2.46-2.49s-2.46,1.06-2.46,2.49,1.06,2.49,2.46,2.49,2.46-1.06,2.46-2.49Z"/><path d="M92.66,30.22h1.87l3.43,5.05v-5.05h1.85v8.25h-1.88l-3.42-5.05v5.05h-1.85v-8.25Z"/><path d="M102.98,37.31c0-2.51,3.73-3.06,3.73-4.56,0-.5-.38-.82-.9-.82s-.88.32-.88.85h-1.9c0-1.55,1.21-2.7,2.81-2.7s2.77,1.1,2.77,2.61c0,2.2-2.52,3.01-3.49,4.04h3.55v1.75h-5.69v-1.16Z"/><path d="M109.55,34.34c0-2.52,1.34-4.27,3.25-4.27s3.26,1.75,3.26,4.27-1.34,4.27-3.26,4.27-3.25-1.75-3.25-4.27ZM114.17,34.34c0-1.46-.55-2.49-1.36-2.49s-1.35,1.03-1.35,2.49.56,2.49,1.35,2.49,1.36-1.03,1.36-2.49Z"/><path d="M116.93,37.31c0-2.51,3.73-3.06,3.73-4.56,0-.5-.38-.82-.9-.82s-.88.32-.88.85h-1.9c0-1.55,1.21-2.7,2.81-2.7s2.77,1.1,2.77,2.61c0,2.2-2.52,3.01-3.49,4.04h3.55v1.75h-5.69v-1.16Z"/><path d="M123.37,34.98c0-2.58,1.78-4.81,4.97-4.81h.24v1.75h-.24c-1.48,0-2.44.69-2.8,1.64.38-.24.88-.39,1.41-.39,1.49,0,2.62,1.12,2.62,2.63,0,1.6-1.29,2.82-3,2.82-1.88,0-3.2-1.43-3.2-3.63ZM127.67,35.84c0-.57-.5-.99-1.15-.99-.61,0-1.14.41-1.14.91s.44,1.08,1.14,1.08c.63,0,1.15-.42,1.15-.99Z"/></svg>