<?xml version="1.0" encoding="UTF-8"?><svg id="Layer_1" xmlns="http://www.w3.org/2000/svg" viewBox="0 0 117.07 27.5"><path d="M0,8.71h5.98l3.31,11.52,3.49-11.52h5.36l3.46,11.52,3.31-11.52h5.83l-6.44,18.36h-5.4l-3.53-11.95-3.53,11.95h-5.4L0,8.71Z"/><path d="M31.03,3.2c0-1.84,1.4-3.2,3.24-3.2s3.28,1.37,3.28,3.2-1.4,3.24-3.28,3.24-3.24-1.37-3.24-3.24ZM31.64,8.71h5.26v18.36h-5.26V8.71Z"/><path d="M38.59,21.49h5.26c0,1.08,1.08,1.84,2.59,1.84,1.33,0,2.3-.61,2.3-1.44,0-2.7-9.86-1.04-9.86-7.67,0-3.89,3.28-5.94,7.31-5.94,4.39,0,7.49,2.45,7.49,5.76h-5.22c0-.97-.97-1.62-2.3-1.62-1.19,0-2.09.54-2.09,1.37,0,2.59,9.9,1.01,9.9,7.56,0,3.67-3.06,6.16-7.52,6.16s-7.85-2.59-7.85-6.01Z"/><path d="M56.66,21.09v-7.6h-2.74v-4.79h1.51c1.01,0,1.51-.5,1.51-1.51v-3.31h4.97v4.82h4v4.79h-4v6.73c0,1.3.79,2.05,2.16,2.05h1.84v4.79h-2.63c-4.36,0-6.62-2.05-6.62-5.98Z"/><path d="M66.67,17.89c0-5.47,4.25-9.61,9.9-9.61s9.9,4.1,9.9,9.72c0,.5-.04,1.12-.14,1.58h-14.04c.58,2.09,2.27,3.42,4.46,3.42,1.69,0,3.06-.72,3.82-1.73h5.62c-1.37,3.71-5.04,6.23-9.58,6.23-5.69,0-9.93-4.14-9.93-9.61ZM72.32,16.09h8.53c-.54-2.02-2.2-3.31-4.28-3.31s-3.67,1.3-4.25,3.31Z"/><path d="M88.05,8.71h5.25v1.73c1.37-1.44,3.13-2.16,5.22-2.16,2.56,0,4.57,1.12,5.69,2.99,1.48-1.94,3.56-2.99,6.19-2.99,4,0,6.66,2.7,6.66,6.8v11.99h-5.26v-10.4c0-1.98-1.26-3.31-3.17-3.31-2.05,0-3.46,1.37-3.46,3.38v10.33h-5.26v-10.4c0-1.98-1.26-3.31-3.17-3.31-2.05,0-3.46,1.37-3.46,3.38v10.33h-5.25V8.71Z"/></svg>